<svg xmlns="http://www.w3.org/2000/svg" width="900" height="500" viewBox="0 0 900 500" role="img" aria-labelledby="title desc"><title id="title">Warm generation throughput with MTP disabled and enabled</title><desc id="desc">Warm generation throughput with MTP disabled and enabled</desc><rect width="100%" height="100%" rx="18" fill="#10141c"/><style>text{font-family:-apple-system,BlinkMacSystemFont,"Segoe UI",sans-serif;fill:#dce5f2}.muted{fill:#8e9bad}.grid{stroke:#293140;stroke-width:1}.value{font-weight:700}</style><text x="48" y="48" font-size="24" font-weight="700">Warm generation throughput</text><text x="48" y="75" font-size="14" class="muted">M2 Ultra · 512 generated tokens · higher is better</text><line x1="65" y1="410.0" x2="860" y2="410.0" class="grid"/><text x="52" y="415.0" font-size="12" text-anchor="end" class="muted">0</text><line x1="65" y1="359.2" x2="860" y2="359.2" class="grid"/><text x="52" y="364.2" font-size="12" text-anchor="end" class="muted">20</text><line x1="65" y1="308.3" x2="860" y2="308.3" class="grid"/><text x="52" y="313.3" font-size="12" text-anchor="end" class="muted">40</text><line x1="65" y1="257.5" x2="860" y2="257.5" class="grid"/><text x="52" y="262.5" font-size="12" text-anchor="end" class="muted">60</text><line x1="65" y1="206.7" x2="860" y2="206.7" class="grid"/><text x="52" y="211.7" font-size="12" text-anchor="end" class="muted">80</text><line x1="65" y1="155.8" x2="860" y2="155.8" class="grid"/><text x="52" y="160.8" font-size="12" text-anchor="end" class="muted">100</text><line x1="65" y1="105.0" x2="860" y2="105.0" class="grid"/><text x="52" y="110.0" font-size="12" text-anchor="end" class="muted">120</text><rect x="96.0" y="334.8" width="34" height="75.2" rx="5" fill="#66c2a5"/><text x="113.0" y="327.8" font-size="12" text-anchor="middle" class="value">29.6</text><rect x="138.0" y="327.9" width="34" height="82.1" rx="5" fill="#8da0cb"/><text x="155.0" y="320.9" font-size="12" text-anchor="middle" class="value">32.3</text><text x="117.0" y="435" font-size="12" text-anchor="middle">Q3.8 q4</text><rect x="255.0" y="349.5" width="34" height="60.5" rx="5" fill="#66c2a5"/><text x="272.0" y="342.5" font-size="12" text-anchor="middle" class="value">23.8</text><rect x="297.0" y="352.1" width="34" height="58.0" rx="5" fill="#8da0cb"/><text x="314.0" y="345.1" font-size="12" text-anchor="middle" class="value">22.8</text><text x="276.0" y="435" font-size="12" text-anchor="middle">Q3.8 q6</text><rect x="414.0" y="357.6" width="34" height="52.4" rx="5" fill="#66c2a5"/><text x="431.0" y="350.6" font-size="12" text-anchor="middle" class="value">20.6</text><rect x="456.0" y="330.4" width="34" height="79.6" rx="5" fill="#8da0cb"/><text x="473.0" y="323.4" font-size="12" text-anchor="middle" class="value">31.3</text><text x="435.0" y="435" font-size="12" text-anchor="middle">Q3.8 q8</text><rect x="573.0" y="331.0" width="34" height="79.0" rx="5" fill="#66c2a5"/><text x="590.0" y="324.0" font-size="12" text-anchor="middle" class="value">31.1</text><rect x="615.0" y="308.6" width="34" height="101.4" rx="5" fill="#8da0cb"/><text x="632.0" y="301.6" font-size="12" text-anchor="middle" class="value">39.9</text><text x="594.0" y="435" font-size="12" text-anchor="middle">Q3.8 q4
FP16 MTP</text><rect x="732.0" y="201.3" width="34" height="208.7" rx="5" fill="#66c2a5"/><text x="749.0" y="194.3" font-size="12" text-anchor="middle" class="value">82.1</text><rect x="774.0" y="144.6" width="34" height="265.4" rx="5" fill="#8da0cb"/><text x="791.0" y="137.6" font-size="12" text-anchor="middle" class="value">104.4</text><text x="753.0" y="435" font-size="12" text-anchor="middle">Q3.6 MoE</text><rect x="625" y="34" width="13" height="13" fill="#66c2a5"/><text x="646" y="45" font-size="12">MTP off</text><rect x="718" y="34" width="13" height="13" fill="#8da0cb"/><text x="739" y="45" font-size="12">MTP on</text></svg>